<mxfile host="app.diagrams.net" agent="Mozilla/5.0 (Macintosh; Intel Mac OS X 10_15_7) AppleWebKit/537.36 (KHTML, like Gecko) Chrome/109.0.0.0 Safari/537.36" version="24.7.7">
  <diagram name="第 1 页" id="wiXhvNdppr8TuSbREdSt">
    <mxGraphModel dx="2076" dy="784" grid="1" gridSize="10" guides="1" tooltips="1" connect="1" arrows="1" fold="1" page="1" pageScale="1" pageWidth="827" pageHeight="1169" math="0" shadow="0">
      <root>
        <mxCell id="0" />
        <mxCell id="1" parent="0" />
        <mxCell id="YLIYKoO06GJf8vO9Z3wq-1" value="&lt;p style=&quot;margin: 0px; font-variant-numeric: normal; font-variant-east-asian: normal; font-stretch: normal; line-height: normal; font-family: &amp;quot;Helvetica Neue&amp;quot;; color: rgba(0, 0, 0, 0.85);&quot; class=&quot;p1&quot;&gt;XYPFProfileViewController&lt;/p&gt;&lt;p style=&quot;margin: 0px; font-variant-numeric: normal; font-variant-east-asian: normal; font-stretch: normal; line-height: normal; font-family: &amp;quot;Helvetica Neue&amp;quot;; color: rgba(0, 0, 0, 0.85);&quot; class=&quot;p1&quot;&gt;（个人页 / 他人页）&lt;/p&gt;" style="rounded=0;whiteSpace=wrap;html=1;align=center;" vertex="1" parent="1">
          <mxGeometry x="150" y="220" width="160" height="80" as="geometry" />
        </mxCell>
        <mxCell id="YLIYKoO06GJf8vO9Z3wq-2" value="&lt;p style=&quot;margin: 0px; font-variant-numeric: normal; font-variant-east-asian: normal; font-stretch: normal; line-height: normal; font-family: &amp;quot;Helvetica Neue&amp;quot;; color: rgba(0, 0, 0, 0.85); text-align: start;&quot; class=&quot;p1&quot;&gt;UICollectionView&lt;/p&gt;" style="rounded=0;whiteSpace=wrap;html=1;" vertex="1" parent="1">
          <mxGeometry x="380" y="220" width="140" height="80" as="geometry" />
        </mxCell>
        <mxCell id="YLIYKoO06GJf8vO9Z3wq-5" value="" style="endArrow=classic;html=1;rounded=0;" edge="1" parent="1" source="YLIYKoO06GJf8vO9Z3wq-1">
          <mxGeometry width="50" height="50" relative="1" as="geometry">
            <mxPoint x="310" y="310" as="sourcePoint" />
            <mxPoint x="380.71067811865476" y="260" as="targetPoint" />
          </mxGeometry>
        </mxCell>
        <mxCell id="YLIYKoO06GJf8vO9Z3wq-6" value="" style="shape=curlyBracket;whiteSpace=wrap;html=1;rounded=1;labelPosition=left;verticalLabelPosition=middle;align=right;verticalAlign=middle;" vertex="1" parent="1">
          <mxGeometry x="561" y="80" width="20" height="360" as="geometry" />
        </mxCell>
        <mxCell id="YLIYKoO06GJf8vO9Z3wq-7" value="&lt;p style=&quot;margin: 0px; font-variant-numeric: normal; font-variant-east-asian: normal; font-stretch: normal; line-height: normal; font-family: &amp;quot;Helvetica Neue&amp;quot;; color: rgba(0, 0, 0, 0.85);&quot; class=&quot;p1&quot;&gt;XYPFHeaderImageDecorationView&lt;/p&gt;&lt;p style=&quot;margin: 0px; font-variant-numeric: normal; font-variant-east-asian: normal; font-stretch: normal; line-height: normal; font-family: &amp;quot;Helvetica Neue&amp;quot;; color: rgba(0, 0, 0, 0.85);&quot; class=&quot;p1&quot;&gt;（用户头图区域）&lt;/p&gt;" style="whiteSpace=wrap;html=1;align=center;" vertex="1" parent="1">
          <mxGeometry x="591" y="90" width="240" height="60" as="geometry" />
        </mxCell>
        <mxCell id="YLIYKoO06GJf8vO9Z3wq-8" value="&lt;p style=&quot;margin: 0px; font-variant-numeric: normal; font-variant-east-asian: normal; font-stretch: normal; line-height: normal; font-family: &amp;quot;Helvetica Neue&amp;quot;; color: rgba(0, 0, 0, 0.85); text-align: start;&quot; class=&quot;p1&quot;&gt;。。。。。。。。&lt;/p&gt;" style="whiteSpace=wrap;html=1;" vertex="1" parent="1">
          <mxGeometry x="591" y="170" width="240" height="60" as="geometry" />
        </mxCell>
        <mxCell id="YLIYKoO06GJf8vO9Z3wq-9" value="items" style="text;html=1;align=center;verticalAlign=middle;resizable=0;points=[];autosize=1;strokeColor=none;fillColor=none;" vertex="1" parent="1">
          <mxGeometry x="520" y="245" width="50" height="30" as="geometry" />
        </mxCell>
        <mxCell id="YLIYKoO06GJf8vO9Z3wq-10" value="&lt;p style=&quot;margin: 0px; font-variant-numeric: normal; font-variant-east-asian: normal; font-stretch: normal; line-height: normal; font-family: &amp;quot;Helvetica Neue&amp;quot;; color: rgba(0, 0, 0, 0.85);&quot; class=&quot;p1&quot;&gt;XYPFSegmentControlCell&lt;/p&gt;&lt;p style=&quot;margin: 0px; font-variant-numeric: normal; font-variant-east-asian: normal; font-stretch: normal; line-height: normal; font-family: &amp;quot;Helvetica Neue&amp;quot;; color: rgba(0, 0, 0, 0.85);&quot; class=&quot;p1&quot;&gt;（多tab栏容器）&lt;/p&gt;" style="whiteSpace=wrap;html=1;align=center;fillColor=#FFB366;" vertex="1" parent="1">
          <mxGeometry x="591" y="260" width="240" height="60" as="geometry" />
        </mxCell>
        <mxCell id="YLIYKoO06GJf8vO9Z3wq-11" value="&lt;p style=&quot;margin: 0px; font-variant-numeric: normal; font-variant-east-asian: normal; font-stretch: normal; line-height: normal; font-family: &amp;quot;Helvetica Neue&amp;quot;; color: rgba(0, 0, 0, 0.85);&quot; class=&quot;p1&quot;&gt;XYPFSegmentedPagesCell&lt;/p&gt;&lt;p style=&quot;margin: 0px; font-variant-numeric: normal; font-variant-east-asian: normal; font-stretch: normal; line-height: normal; font-family: &amp;quot;Helvetica Neue&amp;quot;; color: rgba(0, 0, 0, 0.85);&quot; class=&quot;p1&quot;&gt;（子tab详情页容器）&lt;/p&gt;" style="whiteSpace=wrap;html=1;align=center;" vertex="1" parent="1">
          <mxGeometry x="591" y="360" width="240" height="60" as="geometry" />
        </mxCell>
        <mxCell id="YLIYKoO06GJf8vO9Z3wq-12" value="" style="endArrow=classic;html=1;rounded=0;" edge="1" parent="1">
          <mxGeometry width="50" height="50" relative="1" as="geometry">
            <mxPoint x="840" y="289.5" as="sourcePoint" />
            <mxPoint x="910.7106781186548" y="289.5" as="targetPoint" />
          </mxGeometry>
        </mxCell>
        <mxCell id="YLIYKoO06GJf8vO9Z3wq-13" value="&lt;p style=&quot;margin: 0px; font-variant-numeric: normal; font-variant-east-asian: normal; font-stretch: normal; line-height: normal; font-family: &amp;quot;Helvetica Neue&amp;quot;; color: rgba(0, 0, 0, 0.85);&quot; class=&quot;p1&quot;&gt;HulaDSLTabView&lt;/p&gt;&lt;p style=&quot;margin: 0px; font-variant-numeric: normal; font-variant-east-asian: normal; font-stretch: normal; line-height: normal; font-family: &amp;quot;Helvetica Neue&amp;quot;; color: rgba(0, 0, 0, 0.85);&quot; class=&quot;p1&quot;&gt;（&lt;span style=&quot;background-color: initial;&quot;&gt;真实UI承载：&lt;/span&gt;&lt;span style=&quot;background-color: initial;&quot;&gt;UIScrollView&lt;/span&gt;&lt;span style=&quot;background-color: initial;&quot;&gt;）&lt;/span&gt;&lt;/p&gt;" style="whiteSpace=wrap;html=1;align=center;fillColor=#FFB366;" vertex="1" parent="1">
          <mxGeometry x="920" y="260" width="240" height="60" as="geometry" />
        </mxCell>
        <mxCell id="YLIYKoO06GJf8vO9Z3wq-14" value="" style="shape=curlyBracket;whiteSpace=wrap;html=1;rounded=1;labelPosition=left;verticalLabelPosition=middle;align=right;verticalAlign=middle;" vertex="1" parent="1">
          <mxGeometry x="1190" y="110" width="20" height="360" as="geometry" />
        </mxCell>
        <mxCell id="YLIYKoO06GJf8vO9Z3wq-15" value="笔记tab" style="rounded=0;whiteSpace=wrap;html=1;fillColor=#FFB366;" vertex="1" parent="1">
          <mxGeometry x="1230" y="129" width="120" height="60" as="geometry" />
        </mxCell>
        <mxCell id="YLIYKoO06GJf8vO9Z3wq-16" value="店铺tab" style="rounded=0;whiteSpace=wrap;html=1;fillColor=#FFB366;" vertex="1" parent="1">
          <mxGeometry x="1230" y="219" width="120" height="60" as="geometry" />
        </mxCell>
        <mxCell id="YLIYKoO06GJf8vO9Z3wq-17" value="赞过tab" style="rounded=0;whiteSpace=wrap;html=1;fillColor=#FFB366;" vertex="1" parent="1">
          <mxGeometry x="1230" y="309" width="120" height="60" as="geometry" />
        </mxCell>
        <mxCell id="YLIYKoO06GJf8vO9Z3wq-18" value="。。。" style="rounded=0;whiteSpace=wrap;html=1;fillColor=#FFB366;" vertex="1" parent="1">
          <mxGeometry x="1230" y="399" width="120" height="60" as="geometry" />
        </mxCell>
        <mxCell id="YLIYKoO06GJf8vO9Z3wq-19" value="" style="rounded=0;whiteSpace=wrap;html=1;" vertex="1" parent="1">
          <mxGeometry x="-270" y="585" width="650" height="420" as="geometry" />
        </mxCell>
        <mxCell id="YLIYKoO06GJf8vO9Z3wq-20" value="历史逻辑" style="text;html=1;align=center;verticalAlign=middle;resizable=0;points=[];autosize=1;strokeColor=none;fillColor=none;fontColor=#e51f1f;" vertex="1" parent="1">
          <mxGeometry x="-10" y="597" width="70" height="30" as="geometry" />
        </mxCell>
        <mxCell id="YLIYKoO06GJf8vO9Z3wq-21" value="数据拉取成功" style="rounded=0;whiteSpace=wrap;html=1;" vertex="1" parent="1">
          <mxGeometry x="80" y="635" width="180" height="70" as="geometry" />
        </mxCell>
        <mxCell id="YLIYKoO06GJf8vO9Z3wq-22" value="触发埋点曝光" style="rounded=0;whiteSpace=wrap;html=1;" vertex="1" parent="1">
          <mxGeometry x="80" y="865" width="180" height="70" as="geometry" />
        </mxCell>
        <mxCell id="YLIYKoO06GJf8vO9Z3wq-23" value="itemCell初始化" style="rounded=0;whiteSpace=wrap;html=1;" vertex="1" parent="1">
          <mxGeometry x="83" y="755" width="177" height="60" as="geometry" />
        </mxCell>
        <mxCell id="YLIYKoO06GJf8vO9Z3wq-25" value="" style="endArrow=classic;html=1;rounded=0;" edge="1" parent="1" source="YLIYKoO06GJf8vO9Z3wq-21">
          <mxGeometry width="50" height="50" relative="1" as="geometry">
            <mxPoint x="170" y="755" as="sourcePoint" />
            <mxPoint x="170" y="745" as="targetPoint" />
            <Array as="points">
              <mxPoint x="170" y="715" />
            </Array>
          </mxGeometry>
        </mxCell>
        <mxCell id="YLIYKoO06GJf8vO9Z3wq-26" value="" style="endArrow=classic;html=1;rounded=0;" edge="1" parent="1">
          <mxGeometry width="50" height="50" relative="1" as="geometry">
            <mxPoint x="169.41000000000003" y="825" as="sourcePoint" />
            <mxPoint x="169.41000000000003" y="865" as="targetPoint" />
            <Array as="points">
              <mxPoint x="169.41000000000003" y="835" />
            </Array>
          </mxGeometry>
        </mxCell>
        <mxCell id="YLIYKoO06GJf8vO9Z3wq-27" value="" style="rounded=0;whiteSpace=wrap;html=1;" vertex="1" parent="1">
          <mxGeometry x="510" y="540" width="1070" height="700" as="geometry" />
        </mxCell>
        <mxCell id="YLIYKoO06GJf8vO9Z3wq-29" value="数据拉取成功&lt;div&gt;（首刷/ 下拉刷新）&lt;/div&gt;" style="rounded=0;whiteSpace=wrap;html=1;" vertex="1" parent="1">
          <mxGeometry x="850" y="590" width="180" height="70" as="geometry" />
        </mxCell>
        <mxCell id="YLIYKoO06GJf8vO9Z3wq-30" value="触发埋点曝光" style="rounded=0;whiteSpace=wrap;html=1;" vertex="1" parent="1">
          <mxGeometry x="1110" y="937.5" width="180" height="70" as="geometry" />
        </mxCell>
        <mxCell id="YLIYKoO06GJf8vO9Z3wq-31" value="itemCell初始化" style="rounded=0;whiteSpace=wrap;html=1;" vertex="1" parent="1">
          <mxGeometry x="853" y="710" width="177" height="60" as="geometry" />
        </mxCell>
        <mxCell id="YLIYKoO06GJf8vO9Z3wq-32" value="" style="endArrow=classic;html=1;rounded=0;" edge="1" parent="1" source="YLIYKoO06GJf8vO9Z3wq-29">
          <mxGeometry width="50" height="50" relative="1" as="geometry">
            <mxPoint x="940" y="710" as="sourcePoint" />
            <mxPoint x="940" y="700" as="targetPoint" />
            <Array as="points">
              <mxPoint x="940" y="670" />
            </Array>
          </mxGeometry>
        </mxCell>
        <mxCell id="YLIYKoO06GJf8vO9Z3wq-79" value="" style="edgeStyle=orthogonalEdgeStyle;rounded=0;orthogonalLoop=1;jettySize=auto;html=1;" edge="1" parent="1" source="YLIYKoO06GJf8vO9Z3wq-34" target="YLIYKoO06GJf8vO9Z3wq-78">
          <mxGeometry relative="1" as="geometry" />
        </mxCell>
        <mxCell id="YLIYKoO06GJf8vO9Z3wq-34" value="&lt;p style=&quot;margin: 0px; font-variant-numeric: normal; font-variant-east-asian: normal; font-stretch: normal; line-height: normal; font-family: Menlo; color: rgb(11, 79, 121); text-align: start;&quot; class=&quot;p1&quot;&gt;&amp;nbsp;监听曝光事件&lt;/p&gt;&lt;p style=&quot;margin: 0px; font-variant-numeric: normal; font-variant-east-asian: normal; font-stretch: normal; line-height: normal; font-family: Menlo; color: rgb(11, 79, 121); text-align: start;&quot; class=&quot;p1&quot;&gt;HulaDSLTabView&lt;/p&gt;" style="rounded=0;whiteSpace=wrap;html=1;fillColor=#f8cecc;strokeColor=#b85450;" vertex="1" parent="1">
          <mxGeometry x="1110" y="710" width="185" height="60" as="geometry" />
        </mxCell>
        <mxCell id="YLIYKoO06GJf8vO9Z3wq-36" value="" style="endArrow=classic;html=1;rounded=0;" edge="1" parent="1" source="YLIYKoO06GJf8vO9Z3wq-31">
          <mxGeometry width="50" height="50" relative="1" as="geometry">
            <mxPoint x="1030" y="790" as="sourcePoint" />
            <mxPoint x="1100.7106781186549" y="740" as="targetPoint" />
          </mxGeometry>
        </mxCell>
        <mxCell id="YLIYKoO06GJf8vO9Z3wq-39" value="" style="shape=curlyBracket;whiteSpace=wrap;html=1;rounded=1;labelPosition=left;verticalLabelPosition=middle;align=right;verticalAlign=middle;rotation=90;" vertex="1" parent="1">
          <mxGeometry x="1190" y="880" width="20" height="415" as="geometry" />
        </mxCell>
        <mxCell id="YLIYKoO06GJf8vO9Z3wq-42" value="触发时机" style="text;html=1;align=center;verticalAlign=middle;resizable=0;points=[];autosize=1;strokeColor=none;fillColor=none;" vertex="1" parent="1">
          <mxGeometry x="1132.5" y="1037.5" width="70" height="30" as="geometry" />
        </mxCell>
        <mxCell id="YLIYKoO06GJf8vO9Z3wq-44" value="" style="endArrow=classic;html=1;rounded=0;" edge="1" parent="1">
          <mxGeometry width="50" height="50" relative="1" as="geometry">
            <mxPoint x="1201.91" y="1012.5" as="sourcePoint" />
            <mxPoint x="1201.91" y="1072.5" as="targetPoint" />
          </mxGeometry>
        </mxCell>
        <mxCell id="YLIYKoO06GJf8vO9Z3wq-46" value="数据源变换&lt;div&gt;（下拉刷新）&lt;/div&gt;" style="rounded=0;whiteSpace=wrap;html=1;fillColor=#f8cecc;strokeColor=#b85450;" vertex="1" parent="1">
          <mxGeometry x="1050" y="1107.5" width="120" height="60" as="geometry" />
        </mxCell>
        <mxCell id="YLIYKoO06GJf8vO9Z3wq-48" value="滚动停止时" style="rounded=0;whiteSpace=wrap;html=1;fillColor=#f8cecc;strokeColor=#b85450;" vertex="1" parent="1">
          <mxGeometry x="1240" y="1107.5" width="120" height="60" as="geometry" />
        </mxCell>
        <mxCell id="YLIYKoO06GJf8vO9Z3wq-49" value="根据tabid去重后回调" style="rounded=0;whiteSpace=wrap;html=1;fillColor=#f8cecc;strokeColor=#b85450;" vertex="1" parent="1">
          <mxGeometry x="1110" y="830" width="180" height="70" as="geometry" />
        </mxCell>
        <mxCell id="YLIYKoO06GJf8vO9Z3wq-50" value="" style="endArrow=classic;html=1;rounded=0;" edge="1" parent="1">
          <mxGeometry width="50" height="50" relative="1" as="geometry">
            <mxPoint x="1202.41" y="900" as="sourcePoint" />
            <mxPoint x="1202.41" y="931.7106781186548" as="targetPoint" />
          </mxGeometry>
        </mxCell>
        <mxCell id="YLIYKoO06GJf8vO9Z3wq-52" value="首刷" style="rounded=0;whiteSpace=wrap;html=1;" vertex="1" parent="1">
          <mxGeometry x="-220" y="635" width="180" height="70" as="geometry" />
        </mxCell>
        <mxCell id="YLIYKoO06GJf8vO9Z3wq-53" value="下拉刷新" style="rounded=0;whiteSpace=wrap;html=1;" vertex="1" parent="1">
          <mxGeometry x="-220" y="735" width="180" height="70" as="geometry" />
        </mxCell>
        <mxCell id="YLIYKoO06GJf8vO9Z3wq-57" value="" style="line;strokeWidth=2;html=1;" vertex="1" parent="1">
          <mxGeometry x="-40" y="762" width="60" height="10" as="geometry" />
        </mxCell>
        <mxCell id="YLIYKoO06GJf8vO9Z3wq-59" value="" style="line;strokeWidth=2;html=1;direction=south;" vertex="1" parent="1">
          <mxGeometry x="15" y="672" width="10" height="95" as="geometry" />
        </mxCell>
        <mxCell id="YLIYKoO06GJf8vO9Z3wq-61" value="" style="endArrow=classic;html=1;rounded=0;entryX=0;entryY=0.5;entryDx=0;entryDy=0;" edge="1" parent="1" source="YLIYKoO06GJf8vO9Z3wq-52" target="YLIYKoO06GJf8vO9Z3wq-21">
          <mxGeometry width="50" height="50" relative="1" as="geometry">
            <mxPoint x="-40" y="720" as="sourcePoint" />
            <mxPoint x="30.710678118654755" y="670" as="targetPoint" />
          </mxGeometry>
        </mxCell>
        <mxCell id="YLIYKoO06GJf8vO9Z3wq-66" value="首刷" style="rounded=0;whiteSpace=wrap;html=1;" vertex="1" parent="1">
          <mxGeometry x="540" y="597" width="180" height="70" as="geometry" />
        </mxCell>
        <mxCell id="YLIYKoO06GJf8vO9Z3wq-73" style="edgeStyle=orthogonalEdgeStyle;rounded=0;orthogonalLoop=1;jettySize=auto;html=1;entryX=0;entryY=0.5;entryDx=0;entryDy=0;" edge="1" parent="1" source="YLIYKoO06GJf8vO9Z3wq-67" target="YLIYKoO06GJf8vO9Z3wq-71">
          <mxGeometry relative="1" as="geometry" />
        </mxCell>
        <mxCell id="YLIYKoO06GJf8vO9Z3wq-67" value="下拉刷新" style="rounded=0;whiteSpace=wrap;html=1;" vertex="1" parent="1">
          <mxGeometry x="540" y="697" width="180" height="70" as="geometry" />
        </mxCell>
        <mxCell id="YLIYKoO06GJf8vO9Z3wq-70" value="" style="endArrow=classic;html=1;rounded=0;entryX=0;entryY=0.5;entryDx=0;entryDy=0;" edge="1" parent="1" source="YLIYKoO06GJf8vO9Z3wq-66">
          <mxGeometry width="50" height="50" relative="1" as="geometry">
            <mxPoint x="720" y="682" as="sourcePoint" />
            <mxPoint x="840" y="632" as="targetPoint" />
            <Array as="points">
              <mxPoint x="820" y="630" />
            </Array>
          </mxGeometry>
        </mxCell>
        <mxCell id="YLIYKoO06GJf8vO9Z3wq-75" style="edgeStyle=orthogonalEdgeStyle;rounded=0;orthogonalLoop=1;jettySize=auto;html=1;entryX=0;entryY=0.5;entryDx=0;entryDy=0;dashed=1;fillColor=#f8cecc;strokeColor=#b85450;" edge="1" parent="1" source="YLIYKoO06GJf8vO9Z3wq-71" target="YLIYKoO06GJf8vO9Z3wq-49">
          <mxGeometry relative="1" as="geometry" />
        </mxCell>
        <mxCell id="YLIYKoO06GJf8vO9Z3wq-71" value="重置去重标记" style="rounded=0;whiteSpace=wrap;html=1;fillColor=#f8cecc;strokeColor=#b85450;" vertex="1" parent="1">
          <mxGeometry x="720" y="835" width="130" height="60" as="geometry" />
        </mxCell>
        <mxCell id="YLIYKoO06GJf8vO9Z3wq-74" value="" style="endArrow=classic;html=1;rounded=0;" edge="1" parent="1" source="YLIYKoO06GJf8vO9Z3wq-71">
          <mxGeometry width="50" height="50" relative="1" as="geometry">
            <mxPoint x="785" y="799.2893218813452" as="sourcePoint" />
            <mxPoint x="785" y="630" as="targetPoint" />
          </mxGeometry>
        </mxCell>
        <mxCell id="YLIYKoO06GJf8vO9Z3wq-76" value="优化后逻辑" style="text;html=1;align=center;verticalAlign=middle;resizable=0;points=[];autosize=1;strokeColor=none;fillColor=none;fontColor=#e51f1f;" vertex="1" parent="1">
          <mxGeometry x="1040" y="555" width="80" height="30" as="geometry" />
        </mxCell>
        <mxCell id="YLIYKoO06GJf8vO9Z3wq-81" style="edgeStyle=orthogonalEdgeStyle;rounded=0;orthogonalLoop=1;jettySize=auto;html=1;entryX=1;entryY=0.5;entryDx=0;entryDy=0;" edge="1" parent="1" source="YLIYKoO06GJf8vO9Z3wq-78" target="YLIYKoO06GJf8vO9Z3wq-49">
          <mxGeometry relative="1" as="geometry">
            <Array as="points">
              <mxPoint x="1430" y="865" />
            </Array>
          </mxGeometry>
        </mxCell>
        <mxCell id="YLIYKoO06GJf8vO9Z3wq-78" value="判断tab已显" style="rounded=0;whiteSpace=wrap;html=1;fillColor=#f8cecc;strokeColor=#b85450;" vertex="1" parent="1">
          <mxGeometry x="1340" y="710" width="180" height="60" as="geometry" />
        </mxCell>
      </root>
    </mxGraphModel>
  </diagram>
</mxfile>
